<?xml version="1.0" standalone="no"?>
<!DOCTYPE svg PUBLIC "-//W3C//DTD SVG 20010904//EN"
 "http://www.w3.org/TR/2001/REC-SVG-20010904/DTD/svg10.dtd">
<svg version="1.0" xmlns="http://www.w3.org/2000/svg"
 width="2048.000000pt" height="2048.000000pt" viewBox="0 0 2048.000000 2048.000000"
 preserveAspectRatio="xMidYMid meet">

<g transform="translate(0.000000,2048.000000) scale(0.100000,-0.100000)"
fill="#000000" stroke="none">
<path d="M1855 20470 c-768 -54 -1440 -553 -1721 -1280 -44 -115 -89 -290
-111 -430 -17 -110 -18 -490 -18 -8520 0 -8030 1 -8410 18 -8520 69 -441 261
-824 567 -1130 306 -306 689 -498 1130 -567 110 -17 490 -18 8520 -18 8030 0
8410 1 8520 18 442 69 823 260 1130 567 307 307 498 688 567 1130 17 110 18
490 18 8520 0 8030 -1 8410 -18 8520 -90 580 -398 1066 -877 1384 -235 156
-507 261 -810 313 -100 17 -495 18 -8455 19 -4592 1 -8399 -2 -8460 -6z
m14885 -9501 c579 -33 1157 -144 1581 -302 l64 -24 3 -942 c1 -517 0 -941 -2
-941 -2 0 -48 29 -101 64 -321 213 -828 401 -1325 490 -218 39 -383 56 -605
63 -862 25 -1466 -251 -1591 -727 -22 -86 -22 -253 0 -340 48 -188 166 -347
392 -526 249 -198 528 -343 1257 -653 435 -185 887 -419 1176 -609 316 -208
667 -545 829 -797 362 -562 451 -1418 227 -2177 -45 -150 -130 -369 -196 -501
-89 -179 -202 -330 -360 -482 -194 -186 -360 -301 -634 -437 -436 -217 -892
-334 -1575 -404 -212 -21 -839 -30 -1096 -15 -810 48 -1484 196 -2013 442
l-91 42 0 962 0 962 -42 33 c-42 34 -42 34 -18 41 53 15 60 11 60 -29 0 -37 4
-41 88 -103 538 -400 1179 -662 1836 -750 198 -26 570 -36 771 -20 831 67
1291 433 1234 983 -33 330 -248 594 -719 883 -173 106 -605 309 -1095 516 -82
35 -244 111 -360 169 -621 315 -980 577 -1278 935 -335 401 -495 819 -527
1379 -29 508 67 983 272 1351 251 451 547 742 1023 1007 405 226 940 374 1605
443 322 34 774 39 1210 14z m-4860 -1029 l0 -820 -1280 0 -1280 0 0 -3660 0
-3660 -1020 0 -1020 0 0 3660 0 3660 -1280 0 -1280 0 0 820 0 820 3580 0 3580
0 0 -820z"/>
</g>
</svg>
